<svg width="299" height="299" viewBox="0 0 299 299" fill="none" xmlns="http://www.w3.org/2000/svg">
<g filter="url(#filter0_d_171_2757)">
<circle cx="149.5" cy="129.5" r="45.5" fill="#00C3FF"/>
</g>
<path d="M157.499 126.457C157.739 126.049 157.882 125.59 157.915 125.117C157.947 124.644 157.87 124.17 157.688 123.732C157.507 123.294 157.226 122.904 156.868 122.593C156.51 122.282 156.084 122.059 155.625 121.941V118.781C155.623 117.424 155.171 116.105 154.34 115.032C153.509 113.959 152.345 113.191 151.031 112.85V108.241C151.027 108.245 151.022 108.248 151.018 108.252C151.027 108.189 151.031 108.126 151.031 108.062C151.031 107.656 150.87 107.267 150.583 106.98C150.296 106.693 149.906 106.531 149.5 106.531C149.094 106.531 148.704 106.693 148.417 106.98C148.13 107.267 147.969 107.656 147.969 108.062C147.969 108.126 147.973 108.189 147.982 108.252C147.978 108.248 147.973 108.245 147.969 108.241V112.85C146.655 113.191 145.491 113.959 144.66 115.032C143.829 116.105 143.377 117.424 143.375 118.781V121.941C142.916 122.059 142.49 122.282 142.132 122.593C141.774 122.904 141.493 123.294 141.312 123.732C141.13 124.17 141.053 124.644 141.085 125.117C141.118 125.59 141.261 126.049 141.501 126.457C140.754 126.542 140.063 126.899 139.562 127.46C139.06 128.021 138.782 128.747 138.781 129.5V152.469H160.219V129.5C160.218 128.747 159.94 128.021 159.438 127.46C158.937 126.899 158.246 126.542 157.499 126.457ZM155.612 134.293C155.575 134.577 155.459 134.844 155.278 135.065C155.096 135.286 154.857 135.452 154.586 135.543C154.316 135.635 154.025 135.65 153.746 135.585C153.468 135.52 153.213 135.378 153.011 135.176C152.809 134.974 152.668 134.719 152.603 134.441C152.538 134.163 152.552 133.872 152.644 133.601C152.736 133.331 152.902 133.091 153.123 132.91C153.344 132.728 153.611 132.613 153.894 132.575C154.127 132.545 154.363 132.569 154.585 132.645C154.807 132.721 155.009 132.847 155.175 133.013C155.341 133.179 155.466 133.38 155.542 133.602C155.618 133.824 155.642 134.061 155.612 134.293ZM147.969 114.451V118.738C147.969 119.563 148.603 120.273 149.427 120.311C149.634 120.321 149.841 120.289 150.035 120.216C150.229 120.144 150.407 120.033 150.557 119.89C150.707 119.747 150.826 119.575 150.908 119.384C150.989 119.194 151.031 118.989 151.031 118.781V114.451C152.053 114.812 152.914 115.523 153.462 116.458C154.011 117.392 154.211 118.491 154.028 119.559C153.844 120.627 153.289 121.596 152.461 122.294C151.632 122.993 150.584 123.376 149.5 123.376C148.416 123.376 147.368 122.993 146.539 122.294C145.711 121.596 145.156 120.627 144.972 119.559C144.789 118.491 144.989 117.392 145.538 116.458C146.086 115.523 146.947 114.812 147.969 114.451ZM151.019 137.356C150.981 137.639 150.865 137.906 150.684 138.127C150.503 138.348 150.263 138.514 149.993 138.606C149.722 138.698 149.431 138.712 149.153 138.647C148.874 138.582 148.62 138.441 148.418 138.239C148.216 138.037 148.074 137.782 148.009 137.504C147.944 137.225 147.959 136.934 148.05 136.664C148.142 136.393 148.308 136.154 148.529 135.972C148.75 135.791 149.017 135.675 149.3 135.638C149.533 135.608 149.77 135.632 149.992 135.708C150.214 135.784 150.415 135.909 150.581 136.075C150.747 136.241 150.873 136.443 150.948 136.665C151.024 136.887 151.048 137.123 151.019 137.356ZM143.388 133.894C143.425 133.611 143.541 133.344 143.722 133.123C143.904 132.902 144.143 132.736 144.414 132.644C144.684 132.552 144.975 132.538 145.254 132.603C145.532 132.668 145.787 132.809 145.989 133.011C146.191 133.213 146.332 133.468 146.397 133.746C146.462 134.025 146.448 134.316 146.356 134.586C146.264 134.857 146.098 135.096 145.877 135.278C145.656 135.459 145.389 135.575 145.106 135.612C144.873 135.642 144.637 135.618 144.415 135.542C144.193 135.466 143.991 135.341 143.825 135.175C143.659 135.009 143.534 134.807 143.458 134.585C143.382 134.363 143.358 134.127 143.388 133.894ZM143.375 123.582V126.23C143.142 126.096 142.949 125.903 142.815 125.671C142.68 125.439 142.609 125.175 142.609 124.906C142.609 124.638 142.68 124.374 142.815 124.142C142.949 123.909 143.142 123.716 143.375 123.582ZM141.844 134.094V140.697C140.843 139.195 140.311 137.43 140.312 135.625V132.151C140.778 132.421 141.306 132.563 141.844 132.562C141.988 132.562 142.131 132.552 142.273 132.532C141.992 133.004 141.843 133.544 141.844 134.094ZM143.362 129.7C143.325 129.983 143.209 130.25 143.028 130.471C142.846 130.692 142.607 130.858 142.336 130.95C142.066 131.041 141.775 131.056 141.496 130.991C141.218 130.926 140.963 130.784 140.761 130.582C140.559 130.38 140.418 130.126 140.353 129.847C140.288 129.569 140.302 129.278 140.394 129.007C140.486 128.737 140.652 128.497 140.873 128.316C141.094 128.135 141.361 128.019 141.644 127.981C141.877 127.952 142.113 127.976 142.335 128.052C142.557 128.127 142.759 128.253 142.925 128.419C143.091 128.585 143.216 128.786 143.292 129.008C143.368 129.23 143.392 129.467 143.362 129.7ZM146.438 144.287C145.308 143.886 144.267 143.267 143.375 142.467V136.745C143.84 137.015 144.368 137.157 144.906 137.157C145.444 137.157 145.972 137.015 146.438 136.745V144.287ZM151.031 144.684C150.018 144.855 148.982 144.855 147.969 144.684V139.807C148.434 140.077 148.962 140.219 149.5 140.219C150.038 140.219 150.566 140.077 151.031 139.807V144.684ZM155.625 142.467C154.733 143.267 153.692 143.886 152.562 144.287V137.156C152.562 137.012 152.552 136.869 152.532 136.727C152.999 137.005 153.532 137.153 154.076 137.156C154.62 137.16 155.155 137.017 155.625 136.745V142.467ZM155.625 123.582C155.858 123.716 156.051 123.909 156.185 124.142C156.32 124.374 156.391 124.638 156.391 124.906C156.391 125.175 156.32 125.439 156.185 125.671C156.051 125.903 155.858 126.096 155.625 126.23V123.582ZM155.638 129.7C155.596 129.382 155.655 129.06 155.806 128.778C155.957 128.496 156.192 128.268 156.479 128.127C156.766 127.985 157.09 127.937 157.406 127.99C157.721 128.042 158.013 128.191 158.239 128.418C158.465 128.644 158.615 128.935 158.667 129.251C158.719 129.566 158.671 129.89 158.529 130.177C158.388 130.464 158.16 130.7 157.878 130.851C157.596 131.001 157.274 131.06 156.957 131.019C156.622 130.974 156.312 130.821 156.074 130.583C155.835 130.344 155.682 130.034 155.638 129.7ZM158.688 135.625C158.689 137.43 158.157 139.195 157.156 140.697V134.264H157.151C157.154 134.207 157.156 134.151 157.156 134.094C157.157 133.544 157.008 133.004 156.727 132.532C156.869 132.552 157.012 132.562 157.156 132.562C157.694 132.563 158.222 132.421 158.688 132.15V135.625Z" fill="white"/>
<defs>
<filter id="filter0_d_171_2757" x="0" y="0" width="299" height="299" filterUnits="userSpaceOnUse" color-interpolation-filters="sRGB">
<feFlood flood-opacity="0" result="BackgroundImageFix"/>
<feColorMatrix in="SourceAlpha" type="matrix" values="0 0 0 0 0 0 0 0 0 0 0 0 0 0 0 0 0 0 127 0" result="hardAlpha"/>
<feMorphology radius="24" operator="dilate" in="SourceAlpha" result="effect1_dropShadow_171_2757"/>
<feOffset dy="20"/>
<feGaussianBlur stdDeviation="40"/>
<feComposite in2="hardAlpha" operator="out"/>
<feColorMatrix type="matrix" values="0 0 0 0 0 0 0 0 0 0.764706 0 0 0 0 1 0 0 0 0.76 0"/>
<feBlend mode="normal" in2="BackgroundImageFix" result="effect1_dropShadow_171_2757"/>
<feBlend mode="normal" in="SourceGraphic" in2="effect1_dropShadow_171_2757" result="shape"/>
</filter>
</defs>
</svg>
