<svg width="299" height="299" viewBox="0 0 299 299" fill="none" xmlns="http://www.w3.org/2000/svg">
<g filter="url(#filter0_d_171_2757)">
<circle cx="149.5" cy="129.5" r="45.5" fill="#00C3FF"/>
</g>
<path d="M160.486 140.411L156.773 139.174L155.44 136.508C156.641 135.285 157.475 133.668 157.756 131.981L157.922 130.984H159.344C160.636 130.984 161.688 129.933 161.688 128.641V123.719C161.688 117.257 156.43 112 149.969 112C143.49 112 138.25 117.242 138.25 123.719V128.641C138.25 129.659 138.903 130.527 139.812 130.85V131.766C139.812 133.058 140.864 134.109 142.156 134.109H142.842C143.181 134.845 143.619 135.526 144.153 136.139C144.263 136.266 144.379 136.389 144.497 136.509L143.165 139.174L139.451 140.411C135.134 141.851 132 146.396 132 151.219C132 151.65 132.35 152 132.781 152H167.156C167.588 152 167.938 151.65 167.938 151.219C167.938 146.396 164.804 141.851 160.486 140.411ZM160.125 128.641C160.125 129.071 159.775 129.422 159.344 129.422H158.151C158.35 127.884 158.482 126.247 158.536 124.634C158.537 124.589 158.538 124.545 158.54 124.5H160.125V128.641ZM140.594 129.422C140.163 129.422 139.812 129.071 139.812 128.641V124.5H141.398C141.401 124.581 141.404 124.663 141.407 124.746C141.407 124.749 141.407 124.751 141.407 124.754C141.407 124.754 141.407 124.755 141.407 124.755C141.462 126.323 141.592 127.917 141.786 129.422H140.594V129.422ZM142.156 132.547C141.725 132.547 141.375 132.196 141.375 131.766V130.984H142.015L142.182 131.981C142.213 132.171 142.252 132.359 142.297 132.547H142.156ZM141.376 122.938H139.842C140.238 117.701 144.608 113.562 149.969 113.562C155.306 113.562 159.695 117.701 160.095 122.938H158.561C158.505 118.623 154.991 115.125 150.668 115.125H149.27C144.946 115.125 141.432 118.623 141.376 122.938ZM149.27 116.688H150.668C154.169 116.688 157.002 119.551 157 123.048C157 123.294 156.998 123.508 156.994 123.702C156.994 123.705 156.994 123.707 156.994 123.71L156.017 123.57C153.362 123.191 150.855 121.938 148.959 120.041C148.812 119.895 148.613 119.812 148.406 119.812C146.308 119.812 144.3 120.768 142.972 122.383C143.299 119.202 145.989 116.688 149.27 116.688ZM143.917 132.547C143.526 131.246 143.079 127.418 142.98 124.965L144.031 123.563C144.997 122.275 146.499 121.476 148.098 121.384C150.2 123.385 152.921 124.707 155.796 125.117L156.946 125.281C156.869 126.913 156.712 128.55 156.487 130.056C156.487 130.057 156.487 130.057 156.487 130.058C156.415 130.542 156.359 130.854 156.215 131.724C155.801 134.205 153.949 136.45 151.505 137.061C150.499 137.312 149.439 137.312 148.433 137.061C146.907 136.679 145.507 135.623 144.604 134.109H146.197C146.519 135.019 147.388 135.672 148.406 135.672H149.969C151.264 135.672 152.312 134.623 152.312 133.328C152.312 132.036 151.261 130.984 149.969 130.984H148.406C147.365 130.984 146.51 131.657 146.196 132.547H143.917ZM148.341 138.642C148.876 138.755 149.423 138.813 149.969 138.813C150.396 138.813 150.824 138.777 151.246 138.707L149.866 140.167L148.341 138.642ZM148.792 141.303L146.314 143.924C145.632 142.618 145.045 141.259 144.565 139.868L145.495 138.006L148.792 141.303ZM154.31 137.742L155.373 139.867C154.891 141.261 154.305 142.62 153.623 143.925L150.971 141.272L154.31 137.742ZM147.625 133.328C147.625 132.897 147.975 132.547 148.406 132.547H149.969C150.4 132.547 150.75 132.897 150.75 133.328C150.75 133.76 150.4 134.109 149.969 134.109H148.406C147.975 134.109 147.625 133.759 147.625 133.328ZM133.594 150.438C133.903 146.567 136.479 143.049 139.945 141.894L143.234 140.798C143.837 142.464 144.583 144.083 145.458 145.621C145.459 145.624 145.461 145.626 145.462 145.629L145.462 145.629C146.101 146.753 146.821 147.852 147.601 148.895L148.562 150.438H133.594ZM149.969 149.741L148.909 148.04C148.897 148.021 148.885 148.002 148.871 147.985C148.239 147.141 147.648 146.258 147.111 145.355L149.897 142.408L152.833 145.344C152.292 146.254 151.7 147.14 151.066 147.984C151.028 148.035 151.082 147.955 149.969 149.741ZM151.376 150.438L152.337 148.895C153.12 147.848 153.845 146.74 154.49 145.603C154.494 145.596 154.498 145.589 154.502 145.582C154.502 145.581 154.503 145.581 154.503 145.58C155.367 144.056 156.105 142.451 156.703 140.798L159.992 141.894C163.458 143.049 166.034 146.567 166.344 150.438H151.376Z" fill="white"/>
<defs>
<filter id="filter0_d_171_2757" x="0" y="0" width="299" height="299" filterUnits="userSpaceOnUse" color-interpolation-filters="sRGB">
<feFlood flood-opacity="0" result="BackgroundImageFix"/>
<feColorMatrix in="SourceAlpha" type="matrix" values="0 0 0 0 0 0 0 0 0 0 0 0 0 0 0 0 0 0 127 0" result="hardAlpha"/>
<feMorphology radius="24" operator="dilate" in="SourceAlpha" result="effect1_dropShadow_171_2757"/>
<feOffset dy="20"/>
<feGaussianBlur stdDeviation="40"/>
<feComposite in2="hardAlpha" operator="out"/>
<feColorMatrix type="matrix" values="0 0 0 0 0 0 0 0 0 0.764706 0 0 0 0 1 0 0 0 0.76 0"/>
<feBlend mode="normal" in2="BackgroundImageFix" result="effect1_dropShadow_171_2757"/>
<feBlend mode="normal" in="SourceGraphic" in2="effect1_dropShadow_171_2757" result="shape"/>
</filter>
</defs>
</svg>
