<svg width="295" height="85" viewBox="0 0 295 85" fill="none" xmlns="http://www.w3.org/2000/svg">
<g clip-path="url(#clip0_190_24)">
<path d="M6.39387 0C10.071 0 12.9474 2.72153 12.9474 6.24519C12.9474 9.76885 10.071 12.4116 6.39387 12.4116C2.71674 12.4116 0 9.76885 0 6.24519C0 2.72153 2.71674 0 6.39387 0ZM1.4394 56.7439V20.2849C1.4394 19.1653 2.34736 18.2557 3.46504 18.2557H9.24407C10.3617 18.2557 11.2697 19.1653 11.2697 20.2849V56.7415C11.2697 57.8611 10.3617 58.7707 9.24407 58.7707H3.46504C2.34736 58.7707 1.4394 57.8611 1.4394 56.7415V56.7439Z" fill="#E4F1FF"/>
<path d="M45.0788 36.4327C45.0788 29.3853 42.2811 25.7041 37.5649 25.7041C32.8487 25.7041 28.6926 29.1466 28.4519 38.0345V57.1616C28.4519 58.0521 27.7322 58.7731 26.8433 58.7731H20.2302C19.3413 58.7731 18.6216 58.0521 18.6216 57.1616V19.8671C18.6216 18.9767 19.3413 18.2557 20.2302 18.2557H26.8433C27.7322 18.2557 28.4519 18.9767 28.4519 19.8671V25.0619C30.611 20.0987 35.1651 17.3748 40.3603 17.3748C45.5555 17.3748 50.3526 19.3778 52.9884 24.9808C56.1865 18.4944 61.8607 17.3748 66.2575 17.3748C76.7289 17.3748 81.2854 24.6609 81.2854 36.3515V57.1592C81.2854 58.0497 80.5657 58.7707 79.6768 58.7707H73.0637C72.1748 58.7707 71.4551 58.0497 71.4551 57.1592V36.4303C71.4551 29.3829 68.6573 25.7017 63.9411 25.7017C59.225 25.7017 55.0688 29.1442 54.8281 38.0322V57.1592C54.8281 58.0497 54.1084 58.7707 53.2195 58.7707H46.685C45.7961 58.7707 45.0764 58.0497 45.0764 57.1592V36.4303L45.0788 36.4327Z" fill="#E4F1FF"/>
<path d="M87.9199 83.3217V19.934C87.9199 19.0077 88.6682 18.2581 89.5929 18.2581H96.0773C97.0019 18.2581 97.7502 19.0077 97.7502 19.934V24.3434C100.627 19.9388 105.662 17.3772 111.577 17.3772C123.566 17.3772 131.4 26.8261 131.4 38.6767C131.4 50.5273 123.886 59.6564 111.498 59.6564C106.063 59.6564 101.027 57.4147 97.7502 52.7714V83.3265C97.7502 84.2528 97.0019 85.0024 96.0773 85.0024H89.5929C88.6682 85.0024 87.9199 84.2528 87.9199 83.3265V83.3217ZM109.58 25.6229C102.867 25.6229 97.5095 30.1875 97.5095 38.1945C97.5095 46.2015 102.545 51.4058 109.818 51.4058C117.092 51.4058 121.488 45.5617 121.488 38.5956C121.488 31.6294 116.932 25.6229 109.58 25.6229Z" fill="#E4F1FF"/>
<path d="M176.8 19.9268V57.0996C176.8 58.0235 176.054 58.7707 175.132 58.7707H168.638C167.716 58.7707 166.97 58.0235 166.97 57.0996V52.6854C164.094 57.09 159.058 59.6516 153.143 59.6516C141.154 59.6516 133.32 50.2026 133.32 38.3521C133.32 26.5015 140.834 17.3724 153.222 17.3724C158.658 17.3724 163.693 19.6141 166.97 24.2574V19.9245C166.97 19.0006 167.716 18.2533 168.638 18.2533H175.132C176.054 18.2533 176.8 19.0006 176.8 19.9245V19.9268ZM155.14 51.4058C161.853 51.4058 167.211 46.8413 167.211 38.8343C167.211 30.8273 162.175 25.6229 154.902 25.6229C147.629 25.6229 143.232 31.4671 143.232 38.4332C143.232 45.3994 147.788 51.4058 155.14 51.4058Z" fill="#E4F1FF"/>
<path d="M203.975 17.3748C207.535 17.3748 212.349 18.1029 217.878 21.6624C218.824 22.2712 219.103 23.534 218.49 24.4794L216.16 28.0819C215.557 29.0129 214.322 29.2827 213.381 28.6954C209.654 26.3654 205.779 26.184 204.454 26.184C196.621 26.184 191.106 31.2283 191.106 38.5144C191.106 45.8004 196.621 50.8448 204.454 50.8448C205.784 50.8448 209.68 50.5989 213.419 48.2856C214.344 47.7127 215.557 48.0063 216.153 48.9159L218.483 52.4801C219.098 53.4207 218.829 54.6812 217.89 55.2971C212.356 58.9235 207.538 59.6516 203.975 59.6516C189.907 59.6516 181.195 50.5225 181.195 38.7531C181.195 26.9837 189.667 17.3748 203.975 17.3748Z" fill="#E4F1FF"/>
<path d="M235.148 18.2557H245.193C246.311 18.2557 247.219 19.1653 247.219 20.2849V23.7537C247.219 24.8733 246.311 25.7829 245.193 25.7829H235.148V47.0013C235.148 49.4841 236.187 51.4058 239.064 51.4058C241.461 51.4058 243.06 49.7252 243.06 47.2424C243.06 46.932 243.041 46.5334 242.998 46.1084C242.877 44.9148 243.816 43.8787 245.014 43.8787H249.12C250.062 43.8787 250.882 44.528 251.094 45.4471C251.377 46.6814 251.454 47.9443 251.454 48.4432C251.454 54.3685 247.376 59.654 238.666 59.654C231.953 59.654 225.318 56.7701 225.318 45.6405V25.7829H221.028C219.911 25.7829 219.003 24.8733 219.003 23.7537V20.2849C219.003 19.1653 219.911 18.2557 221.028 18.2557H225.797L227.279 9.14816C227.439 8.16697 228.285 7.44601 229.279 7.44601H233.125C234.243 7.44601 235.151 8.35557 235.151 9.47522V18.2557H235.148Z" fill="#E4F1FF"/>
<path d="M280.115 21.6457V27.2606C280.115 27.8312 280.353 28.3827 280.782 28.7575C283.444 31.0899 285.089 34.6207 285.089 38.5836C285.089 42.5466 283.444 46.1132 280.787 48.4313C280.356 48.8085 280.117 49.3599 280.117 49.9329V55.5359C280.117 57.0303 281.688 58.0115 283.022 57.3407C290.046 53.8218 295.002 46.7506 295.002 38.5836C295.002 30.4167 290.046 23.3813 283.027 19.8433C281.693 19.1701 280.117 20.1512 280.117 21.6481L280.115 21.6457Z" fill="#00C3FF"/>
<path d="M274.496 30.1159V32.9233C274.496 33.2098 274.615 33.4843 274.829 33.6729C276.159 34.8379 276.984 36.6046 276.984 38.586C276.984 40.5675 276.162 42.3508 274.832 43.5086C274.615 43.6972 274.496 43.9718 274.496 44.2582V47.0609C274.496 47.8082 275.282 48.2976 275.949 47.9633C279.46 46.2039 281.938 42.6683 281.938 38.5836C281.938 34.4989 279.46 30.9824 275.949 29.2135C275.282 28.8768 274.496 29.3662 274.496 30.1159Z" fill="#E4F1FF"/>
<path d="M270.547 34.6183V35.9337C270.547 36.0674 270.602 36.1963 270.704 36.2847C271.329 36.8313 271.712 37.6574 271.712 38.586C271.712 39.5147 271.326 40.3502 270.704 40.8922C270.604 40.9805 270.547 41.1094 270.547 41.2431V42.5561C270.547 42.907 270.914 43.1362 271.229 42.9787C272.873 42.155 274.036 40.4982 274.036 38.5836C274.036 36.669 272.875 35.0218 271.231 34.1934C270.919 34.0358 270.549 34.265 270.549 34.6159L270.547 34.6183Z" fill="#E4F1FF"/>
<path d="M275.442 53.3563C275.442 52.2032 274.477 51.3056 273.328 51.3462C273.183 51.3509 273.037 51.3533 272.89 51.3533C266.079 51.3533 260.869 45.7336 260.869 38.5884C260.869 31.4432 266.079 25.8259 272.89 25.8259C273.037 25.8259 273.183 25.8283 273.328 25.833C274.479 25.8736 275.442 24.9784 275.442 23.8253V19.4327C275.442 18.3393 274.579 17.4345 273.488 17.4035C273.288 17.3987 273.087 17.3963 272.887 17.3963C261.188 17.3963 250.932 26.8691 250.932 38.5884C250.932 50.3077 261.188 59.7805 272.887 59.7805C273.087 59.7805 273.288 59.7781 273.485 59.7734C274.577 59.7423 275.439 58.8375 275.439 57.7441V53.3539L275.442 53.3563Z" fill="#00C3FF"/>
<path d="M189.934 70.3181H192.231C192.555 70.3181 192.82 70.5831 192.82 70.9077V72.7245C193.723 70.8576 195.419 70.0077 197.452 70.0077C201.013 70.0077 202.736 72.5836 202.736 76.7161V84.0522C202.736 84.3769 202.471 84.6419 202.147 84.6419H199.85C199.526 84.6419 199.261 84.3769 199.261 84.0522V76.7447C199.261 74.2547 198.215 72.9513 196.492 72.9513C194.457 72.9513 192.82 74.4791 192.82 77.48V84.0499C192.82 84.3745 192.555 84.6395 192.231 84.6395H189.934C189.609 84.6395 189.345 84.3745 189.345 84.0499V70.9077C189.345 70.5831 189.609 70.3181 189.934 70.3181Z" fill="#E4F1FF"/>
<path d="M218.907 81.8082C219.134 82.0326 219.136 82.4002 218.907 82.6246C217.065 84.4342 214.892 84.9499 212.838 84.9499C207.695 84.9499 204.616 81.61 204.616 77.5349C204.616 73.4598 207.921 70.0077 212.442 70.0077C216.169 70.0077 219.684 72.2637 219.942 77.3559C219.958 77.6829 219.696 77.9598 219.37 77.9598H208.093C208.093 80.223 209.93 82.0063 213.009 82.0063C214.601 82.0063 215.833 81.4859 216.946 80.5835C217.172 80.3997 217.499 80.414 217.706 80.6193L218.91 81.8058L218.907 81.8082ZM208.262 75.6107H216.398C215.862 73.4025 213.912 72.7818 212.442 72.7818C210.972 72.7818 208.996 73.4049 208.26 75.6107H208.262Z" fill="#E4F1FF"/>
<path d="M225.883 70.3181H229.577C229.894 70.3181 230.149 70.5735 230.149 70.891V72.4046C230.149 72.7221 229.894 72.9775 229.577 72.9775H225.883V80.4761C225.883 81.3522 226.25 82.0326 227.267 82.0326C228.116 82.0326 228.681 81.4381 228.681 80.562C228.681 80.4188 228.669 80.2206 228.642 80.0201C228.597 79.6763 228.864 79.3731 229.21 79.3731H230.935C231.19 79.3731 231.419 79.5402 231.485 79.7861C231.614 80.2636 231.647 80.7912 231.647 80.9846C231.647 83.0782 230.206 84.9475 227.127 84.9475C224.753 84.9475 222.408 83.9281 222.408 79.9938V72.9751H220.747C220.43 72.9751 220.175 72.7197 220.175 72.4022V70.8886C220.175 70.5711 220.43 70.3157 220.747 70.3157H222.577L223.121 66.9758C223.166 66.6989 223.404 66.496 223.686 66.496H225.311C225.628 66.496 225.883 66.7514 225.883 67.069V70.3157V70.3181Z" fill="#E4F1FF"/>
<path d="M241.301 70.7144H243.094C243.341 70.7144 243.563 70.8743 243.639 71.113L246.449 79.9126L249.402 70.7168C249.478 70.4804 249.697 70.3181 249.945 70.3181H252.471C252.867 70.3181 253.143 70.712 253.01 71.0844L248.279 84.2599C248.198 84.4867 247.981 84.6395 247.741 84.6395H245.455C245.205 84.6395 244.983 84.4772 244.909 84.2384L242.209 75.6131L239.483 84.2408C239.407 84.4796 239.188 84.6419 238.937 84.6419H236.678C236.438 84.6419 236.221 84.4891 236.14 84.2623L231.409 71.0868C231.276 70.7144 231.552 70.3205 231.948 70.3205H234.448C234.695 70.3205 234.915 70.4804 234.991 70.7168L237.97 79.915L240.753 71.1178C240.83 70.8791 241.049 70.7191 241.299 70.7191L241.301 70.7144Z" fill="#E4F1FF"/>
<path d="M261.034 70.0053C265.216 70.0053 268.802 73.3738 268.802 77.4776C268.802 81.5814 265.214 84.9499 261.034 84.9499C257.449 84.9499 253.293 81.6387 253.293 77.4776C253.293 73.3165 256.908 70.0053 261.034 70.0053ZM261.034 81.9777C263.462 81.9777 265.299 79.9962 265.299 77.4776C265.299 74.959 263.462 72.9775 261.034 72.9775C258.605 72.9775 256.796 74.959 256.796 77.4776C256.796 79.9962 258.634 81.9777 261.034 81.9777Z" fill="#E4F1FF"/>
<path d="M274.322 73.486C274.803 71.0534 276.695 70.0053 278.22 70.0053C278.516 70.0053 278.735 70.0364 278.962 70.0889C279.221 70.1486 279.407 70.3801 279.407 70.6475V72.8797C279.407 73.2401 279.078 73.5099 278.723 73.4407C278.368 73.3714 278.037 73.3428 277.768 73.3428C276.495 73.3428 274.377 74.0494 274.377 78.0124V84.0618C274.377 84.3793 274.122 84.6347 273.805 84.6347H271.474C271.157 84.6347 270.902 84.3793 270.902 84.0618V70.8862C270.902 70.5687 271.157 70.3133 271.474 70.3133H273.747C274.064 70.3133 274.319 70.5687 274.319 70.8862V73.4836L274.322 73.486Z" fill="#E4F1FF"/>
<path d="M288.968 70.3181H292.343C292.517 70.3181 292.655 70.4589 292.655 70.6308C292.655 70.7024 292.631 70.7717 292.586 70.829L287.684 76.8832L289.831 80.223C290.565 81.2973 291.018 81.8082 292.062 81.8082C292.324 81.8082 292.953 81.7461 293.482 81.4716C293.639 81.3904 293.83 81.4429 293.911 81.6005L294.888 83.4936C294.952 83.6201 294.928 83.7753 294.821 83.8684C293.663 84.8735 292.25 84.9523 291.578 84.9523C289.407 84.9523 288.194 83.7682 287.205 82.3573C287.2 82.3525 287.198 82.3453 287.193 82.3405L284.317 77.7068V84.3268C284.317 84.5011 284.176 84.6395 284.004 84.6395H281.154C280.98 84.6395 280.842 84.4987 280.842 84.3268V64.493C280.842 64.3188 280.983 64.1803 281.154 64.1803H284.004C284.178 64.1803 284.317 64.3212 284.317 64.493V76.2362L288.716 70.4446C288.775 70.3658 288.866 70.3205 288.964 70.3205L288.968 70.3181Z" fill="#E4F1FF"/>
</g>
<defs>
<clipPath id="clip0_190_24">
<rect width="295" height="85" fill="white"/>
</clipPath>
</defs>
</svg>
